<svg xmlns="http://www.w3.org/2000/svg" xmlns:xlink="http://www.w3.org/1999/xlink" viewBox="0 0 87 87"><defs><style>.cls-1{fill:url(#Degradado_sin_nombre_71);}.cls-2{fill:#ededef;}.cls-3{fill:none;}.cls-4{fill:url(#Degradado_sin_nombre_71-2);}.cls-5{fill:url(#Degradado_sin_nombre_71-3);}.cls-6{fill:url(#Degradado_sin_nombre_71-4);}.cls-7{fill:url(#Degradado_sin_nombre_71-5);}.cls-8{fill:url(#Degradado_sin_nombre_71-6);}</style><linearGradient id="Degradado_sin_nombre_71" x1="12.76" y1="74.24" x2="74.24" y2="12.76" gradientUnits="userSpaceOnUse"><stop offset="0" stop-color="#00437a"/><stop offset="0.08" stop-color="#005999"/><stop offset="0.18" stop-color="#006fb8"/><stop offset="0.29" stop-color="#0081d2"/><stop offset="0.41" stop-color="#008fe6"/><stop offset="0.55" stop-color="#0098f4"/><stop offset="0.71" stop-color="#009efd"/><stop offset="1" stop-color="#00a0ff"/></linearGradient><linearGradient id="Degradado_sin_nombre_71-2" x1="27.35" y1="65.93" x2="69.74" y2="23.54" xlink:href="#Degradado_sin_nombre_71"/><linearGradient id="Degradado_sin_nombre_71-3" x1="28.24" y1="63.45" x2="69.04" y2="22.66" xlink:href="#Degradado_sin_nombre_71"/><linearGradient id="Degradado_sin_nombre_71-4" x1="38.97" y1="79.52" x2="83.73" y2="34.76" xlink:href="#Degradado_sin_nombre_71"/><linearGradient id="Degradado_sin_nombre_71-5" x1="28.07" y1="65.75" x2="67.67" y2="26.15" xlink:href="#Degradado_sin_nombre_71"/><linearGradient id="Degradado_sin_nombre_71-6" x1="10.79" y1="47.53" x2="40.8" y2="17.52" xlink:href="#Degradado_sin_nombre_71"/></defs><title>Customer</title><g id="Capa_2" data-name="Capa 2"><g id="Capa_1-2" data-name="Capa 1"><path class="cls-1" d="M43.5,87A43.5,43.5,0,1,1,87,43.5,43.54,43.54,0,0,1,43.5,87Zm0-85A41.5,41.5,0,1,0,85,43.5,41.55,41.55,0,0,0,43.5,2Z"/><circle class="cls-2" cx="43.5" cy="43.5" r="37.5"/><path class="cls-3" d="M51.34,38.36a.43.43,0,0,1,.41-.29h.53A1.43,1.43,0,0,0,53.66,37l.41-1.64a.39.39,0,0,0,0-.15.58.58,0,0,0-.17-.41.6.6,0,0,0-.42-.18h-.88a.42.42,0,0,1-.43-.42l.54-2.65c.05-.25.09-.51.12-.76a4.48,4.48,0,0,0-2.66-1.84l-2.1,1.41a8.25,8.25,0,0,1-9.18,0l-2.1-1.41a4.45,4.45,0,0,0-2.66,1.84,7.11,7.11,0,0,0,.13.76l.52,2.56a.42.42,0,0,1-.09.36.41.41,0,0,1-.33.15H33.5a.6.6,0,0,0-.42.18.58.58,0,0,0-.15.56l.4,1.64a1.43,1.43,0,0,0,1.39,1.09h.54a.43.43,0,0,1,.41.3l.15.5a7.94,7.94,0,0,0,7.65,5.67h.07a7.93,7.93,0,0,0,7.64-5.67Z"/><path class="cls-4" d="M59.25,49.34l-9.33-1.69a.3.3,0,0,1-.24-.29V44.77a10.22,10.22,0,0,0,3.44-4.51,3.71,3.71,0,0,0,2.76-2.72l.42-1.64a3.43,3.43,0,0,0,.08-.71,2.89,2.89,0,0,0-1.55-2.55L55,32a11.47,11.47,0,0,0,.19-1.29c0-.36.05-.73.05-1.09a11.45,11.45,0,0,0-.9-4.48,10.94,10.94,0,0,0-2.48-3.72,11.94,11.94,0,0,0-12.26-2.8,1,1,0,0,0-.63.61,1.21,1.21,0,0,0,0,.88,1.15,1.15,0,0,0,1.49.63,8.22,8.22,0,0,1,6.74.23,9.34,9.34,0,0,1,5.06,5.14,8.89,8.89,0,0,1,.45,1.41,8.16,8.16,0,0,0-2.52-.93l-.28,0a.42.42,0,0,0-.31.06l-2.75,1.84a6,6,0,0,1-6.64,0l-2.75-1.84a.42.42,0,0,0-.31-.06l-.28,0a8.38,8.38,0,0,0-2.52.93,6.29,6.29,0,0,1,1.21-2.9,1.15,1.15,0,1,0-1.83-1.38,7.72,7.72,0,0,0-1.3,2.67,11.45,11.45,0,0,0-.61,3.71A11.86,11.86,0,0,0,32,32l.13.65a2.9,2.9,0,0,0-1.54,2.55,3.36,3.36,0,0,0,.08.71l.41,1.63a3.7,3.7,0,0,0,2.77,2.73,10.15,10.15,0,0,0,3.44,4.51v2.59a.3.3,0,0,1-.24.29l-9.33,1.69a7.62,7.62,0,0,0-6.25,7.5v6.82a1.15,1.15,0,1,0,2.29,0V56.84a5.32,5.32,0,0,1,4.37-5.24l7.89-1.44A4.74,4.74,0,0,0,36.74,52a1.07,1.07,0,0,0,.7.53,1.1,1.1,0,0,0,.85-.11h0a1.14,1.14,0,0,0,.52-.7,1.1,1.1,0,0,0-.12-.87,2.84,2.84,0,0,1-.43-1.2,2.6,2.6,0,0,0,1.33-2.26V46.07a10.27,10.27,0,0,0,7.78,0v1.29a2.6,2.6,0,0,0,1.33,2.26,5.32,5.32,0,0,1-5.2,4.27h-.18a1.13,1.13,0,0,0-.85.22,1.14,1.14,0,0,0,.51,2l.51,0a7.58,7.58,0,0,0,7.44-6l7.88,1.44a5.32,5.32,0,0,1,4.38,5.24v6.82a1.15,1.15,0,1,0,2.29,0V56.84A7.62,7.62,0,0,0,59.25,49.34Zm-15.71-4.8h-.07a7.94,7.94,0,0,1-7.65-5.67l-.15-.5a.43.43,0,0,0-.41-.3h-.54A1.43,1.43,0,0,1,33.33,37l-.4-1.64a.58.58,0,0,1,.15-.56.6.6,0,0,1,.42-.18h.88a.41.41,0,0,0,.33-.15.42.42,0,0,0,.09-.36l-.52-2.56a7.11,7.11,0,0,1-.13-.76,4.45,4.45,0,0,1,2.66-1.84l2.1,1.41a8.25,8.25,0,0,0,9.18,0l2.1-1.41a4.48,4.48,0,0,1,2.66,1.84c0,.25-.07.51-.12.76l-.54,2.65a.42.42,0,0,0,.43.42h.88a.6.6,0,0,1,.42.18.58.58,0,0,1,.17.41.39.39,0,0,1,0,.15L53.66,37a1.43,1.43,0,0,1-1.38,1.09h-.53a.43.43,0,0,0-.41.29l-.16.51A7.93,7.93,0,0,1,43.54,44.54Z"/><path class="cls-5" d="M30.1,58.38a1.1,1.1,0,0,0-1.14,1v4.33a1.15,1.15,0,0,0,2.29,0V59.43A1.11,1.11,0,0,0,30.1,58.38Z"/><path class="cls-6" d="M56.9,58.38a1.11,1.11,0,0,0-1.15,1v4.33a1.15,1.15,0,0,0,2.29,0V59.43A1.1,1.1,0,0,0,56.9,58.38Z"/><path class="cls-7" d="M40.52,53h0a1.15,1.15,0,0,0-1.28,1.9,1.1,1.1,0,0,0,.66.21l.19,0a1.11,1.11,0,0,0,.74-.46,1.14,1.14,0,0,0,.2-.86,1.09,1.09,0,0,0-.44-.72Z"/><path class="cls-8" d="M37,22.43h0a1.23,1.23,0,0,0,.7-.24A1.15,1.15,0,0,0,37,20.14a1.15,1.15,0,0,0,0,2.29Z"/></g></g></svg>